<svg width="24" height="24" viewBox="0 0 24 24" fill="none" xmlns="http://www.w3.org/2000/svg">
<path d="M4.34677 4.94025C6.20902 3.366 8.56852 2.32575 11.1598 2.08125L11.2093 2.0775C14.4065 2.0775 17.3503 3.162 19.6933 4.983L19.6618 4.95975C19.7525 5.025 19.865 5.06325 19.9873 5.06325C20.2985 5.06325 20.5505 4.81125 20.5505 4.5C20.5505 4.31175 20.4583 4.14525 20.3165 4.04325L20.315 4.04175C17.8198 2.115 14.648 0.953247 11.2048 0.953247C11.1838 0.953247 11.1635 0.953247 11.1425 0.953247H11.1455C8.26027 1.215 5.68027 2.34525 3.62377 4.07775L3.64402 4.06125C3.51352 4.1655 3.43102 4.32375 3.43102 4.5015C3.43102 4.812 3.68302 5.064 3.99352 5.064C4.12702 5.064 4.25002 5.01825 4.34677 4.94025ZM21.416 8.62125C18.2915 5.19225 15.113 3.453 11.9645 3.453H11.9315C8.79352 3.46575 5.64802 5.205 2.58052 8.62425C2.49127 8.72325 2.43652 8.85525 2.43652 9C2.43652 9.3105 2.68852 9.5625 2.99902 9.5625C3.16552 9.5625 3.31477 9.4905 3.41752 9.37575L3.41827 9.375C6.26377 6.2025 9.12952 4.5885 11.9353 4.578C14.7823 4.55925 17.6705 6.18225 20.5828 9.378C20.6863 9.49125 20.834 9.56175 20.999 9.56175C21.3095 9.56175 21.5615 9.30975 21.5615 8.99925C21.5615 8.853 21.506 8.72025 21.4145 8.6205L21.416 8.62125ZM17.0098 20.763C15.7468 20.43 14.6803 19.7227 13.9055 18.7702L13.8973 18.7597C13.1218 17.7435 12.6283 16.4745 12.5533 15.0945L12.5525 15.0772C12.5165 14.7915 12.275 14.5732 11.9833 14.5732C11.9668 14.5732 11.951 14.574 11.9345 14.5755H11.9368C11.651 14.6055 11.4305 14.844 11.4305 15.135C11.4305 15.1552 11.4313 15.1747 11.4335 15.1942V15.192C11.5363 16.8157 12.1175 18.2865 13.0355 19.485L13.022 19.4662C13.9558 20.6152 15.227 21.4567 16.6835 21.843L16.7323 21.8542C16.7743 21.8655 16.8223 21.8715 16.871 21.8715C17.1815 21.8715 17.4335 21.6195 17.4335 21.309C17.4335 21.048 17.2558 20.8282 17.0143 20.7652L17.0105 20.7645L17.0098 20.763ZM15.0703 7.0125C14.1313 6.636 13.043 6.41775 11.9038 6.41775C11.4643 6.41775 11.0323 6.45 10.61 6.513L10.658 6.507C9.05077 6.7785 7.63627 7.458 6.48127 8.43525L6.49402 8.42475C4.81252 9.80175 3.60877 11.7052 3.13252 13.881L3.12052 13.9455C3.05077 14.2725 2.99602 14.5987 2.94952 14.9722C2.92777 15.2145 2.91502 15.4972 2.91502 15.7822C2.91502 18.006 3.67402 20.0527 4.94677 21.6772L4.93102 21.6562C5.03527 21.7852 5.19277 21.867 5.36977 21.867C5.68027 21.867 5.93227 21.615 5.93227 21.3045C5.93227 21.171 5.88577 21.048 5.80777 20.952L5.80852 20.9527C4.70377 19.551 4.03627 17.76 4.03627 15.8122C4.03627 15.5512 4.04827 15.2932 4.07152 15.0382L4.06927 15.0712C4.10727 14.7707 4.15752 14.4735 4.22002 14.1795C4.65352 12.1957 5.72077 10.5105 7.19452 9.30375L7.20952 9.29175C8.20252 8.45025 9.43177 7.85775 10.7848 7.62525L10.8298 7.61925C11.1515 7.57125 11.522 7.54425 11.8993 7.54425C12.8968 7.54425 13.8493 7.7355 14.7223 8.08275L14.6705 8.06475C17.0008 8.96475 18.7813 10.8367 19.5395 13.17L19.556 13.2277C19.9678 14.5612 20.0848 16.9035 19.2335 17.8342C18.9725 18.0892 18.6163 18.246 18.2225 18.246C18.0583 18.246 17.9 18.2182 17.753 18.168L17.7635 18.171C17.2063 18.0232 16.727 17.7435 16.3438 17.3662L16.3445 17.367C16.0625 17.1352 15.839 16.8427 15.6928 16.509L15.6868 16.494C15.6058 16.224 15.5585 15.9135 15.5585 15.5925C15.5585 15.5692 15.5585 15.5467 15.5593 15.5235V15.5272C15.5593 15.5205 15.5593 15.513 15.5593 15.5055C15.5593 15.0892 15.5023 14.6857 15.3965 14.3032L15.404 14.3347C15.0088 13.2802 14.141 12.4852 13.0655 12.198L13.0415 12.1927C12.6943 12.0637 12.2938 11.9887 11.8753 11.9887C11.6173 11.9887 11.366 12.0172 11.1245 12.0712L11.147 12.0667C10.4623 12.2685 9.88327 12.6547 9.45052 13.1685L9.44602 13.1737C8.93677 13.7025 8.57077 14.3715 8.41102 15.1177L8.40652 15.144C8.40052 15.2467 8.39677 15.3667 8.39677 15.4875C8.39677 17.1697 9.06352 18.696 10.1465 19.8172L10.145 19.8157C11.1688 21.0412 12.275 22.1302 13.478 23.1045L13.523 23.1397C13.6205 23.2245 13.7488 23.2755 13.8898 23.2755C14.2003 23.2755 14.4523 23.0235 14.4523 22.713C14.4523 22.5397 14.3743 22.3852 14.2513 22.2817L14.2505 22.281C13.061 21.3195 12.0058 20.283 11.0578 19.1535L11.0293 19.1182C10.0925 18.1995 9.51127 16.9207 9.51127 15.5062C9.51127 15.45 9.51202 15.3937 9.51427 15.3382V15.3465C9.64027 14.79 9.91027 14.3092 10.2823 13.9297L10.2815 13.9305C10.5733 13.5735 10.9618 13.3057 11.4058 13.164L11.423 13.1595C11.5588 13.1317 11.7148 13.1152 11.8745 13.1152C12.17 13.1152 12.4528 13.17 12.7138 13.2697L12.698 13.2645C13.4428 13.4512 14.0375 13.9702 14.3255 14.6497L14.3315 14.6655C14.399 14.925 14.4373 15.2235 14.4373 15.531C14.4373 15.5445 14.4373 15.558 14.4373 15.5715V15.5692C14.4373 15.5835 14.4373 15.6007 14.4373 15.6172C14.4373 16.0687 14.5093 16.5037 14.642 16.911L14.6338 16.8817C14.849 17.4082 15.1753 17.85 15.5855 18.1957L15.5908 18.2002C16.115 18.7072 16.7713 19.0807 17.5025 19.266L17.5318 19.272C17.7455 19.3372 17.9908 19.3747 18.245 19.3747C18.962 19.3747 19.6093 19.0755 20.0683 18.5947L20.069 18.594C21.3358 17.2095 21.0883 14.3647 20.636 12.897C19.7548 10.1737 17.7275 8.04075 15.137 7.03575L15.074 7.014L15.0703 7.0125ZM6.95152 15.516C6.99052 13.968 7.72177 12.5985 8.84602 11.7L8.85577 11.6925C9.28627 11.3257 9.78127 11.0167 10.3183 10.7865L10.3558 10.7722C10.9558 10.5105 11.6548 10.3582 12.3898 10.3582C13.211 10.3582 13.988 10.5487 14.6795 10.887L14.6488 10.8735C16.235 11.8447 17.2775 13.569 17.2775 15.5362C17.2775 15.6202 17.2753 15.7042 17.2715 15.7875L17.2723 15.7755C17.2873 16.0747 17.5333 16.3117 17.8348 16.3117C18.146 16.3117 18.398 16.0597 18.398 15.7485C18.398 15.7402 18.398 15.7327 18.3973 15.7245V15.726C18.4018 15.6382 18.404 15.5355 18.404 15.432C18.404 13.0582 17.1088 10.9875 15.1865 9.8865L15.155 9.87C14.3465 9.46875 13.3948 9.234 12.3875 9.234C11.4973 9.234 10.6498 9.41775 9.88102 9.7485L9.92227 9.73275C9.23602 10.0245 8.64502 10.3927 8.12152 10.839L8.13127 10.8307C6.76402 11.94 5.88202 13.6012 5.82652 15.4702V15.4792C5.92027 18.432 7.22902 21.0622 9.26602 22.899L9.27502 22.9072C9.37552 23.0032 9.51277 23.0625 9.66352 23.0625C9.97402 23.0625 10.226 22.8105 10.226 22.5C10.226 22.3402 10.1593 22.1955 10.052 22.0927C8.22652 20.4622 7.05352 18.135 6.95152 15.5332L6.95077 15.516H6.95152Z" fill="#8F8F8F"/>
</svg>
